One Week (2008)

Director: Michael McGowan

One Week is a 2008 Canadian film directed by Michael McGowan and starring Joshua Jackson, Liane Balaban, and Campbell Scott. The film debuted at the Toronto Film Festival on September 8, 2008 and was released theatrically on March 6, 2009.

Jackson plays Ben Tyler, who has been diagnosed with cancer. Requiring immediate treatment, he instead decides to take a motorcycle trip from Toronto through the Canadian prairies to Vancouver Island. Along the way, he meets several people that help him reevaluate his relationship with his fiancée Samantha (played by Balaban), his job and his dream of becoming a writer.

The scenic backdrop of the Canadian landscape as well as an all-Canadian soundtrack serve as prevalent influences in the film.

Confronted by his own mortality after being diagnosed with virulent form of cancer, a disillusioned twenty-something rails against the many disappointments in his life by impulsively purchasing a motorcycle and heading out west, instead of taking his doctor's advice to begin immediate treatment. Ben Tyler (Joshua Jackson) has an unfulfilling job as a high school English teacher and a manuscript that's gathering dust after being rejected by every publisher in town. And while Ben is undeniably comfortable in his relationship with faithful fiancée Samantha (Liane Balaban), he can't help but feeling that there's something in their relationship that he has never truly confronted. Informed by his doctor that he is suffering from a highly malignant form of cancer and has only a 10% chance of survival if he begins treatment immediately, Ben rails against his fate by straddling a vintage motorcycle and embarking on a 4,000 kilometer journey from Toronto to Tofino, B.C., meeting a variety of people who help him understand what it truly means to be alive along the way. Later, while hiking in Banff, Ben becomes dangerously sick and desperately lost before an intense encounter with a woman named Tracey (Emm Gryner) convinces him once and for all that he isn't in love with Samantha. In the emotional aftermath of that encounter, Ben terminates his relationship with Tracey and makes a pledge to live a lifetime with each passing day. It isn't long before Ben's condition begins to deteriorate, however, and by the time he finally arrives at mile zero of the Trans-Canada highway, he's fresh out of road and seriously close to death. 

Media Info:
General
Complete name                    : J:\Seeding\One Week (2008)[DVDRip][big_dad_e™]\One Week (2008)[DVDRip][big_dad_e™].avi
Format                           : AVI
Format/Info                      : Audio Video Interleave
Format profile                   : OpenDML
File size                        : 1.36 GiB
Duration                         : 1h 34mn
Overall bit rate                 : 2 070 Kbps
Movie name                       : ONE_WEEK.Title1.DVDRip
Writing application              : Lavf52.78.4
Original source form/Name        : ONE_WEEK

Video
ID                               : 0
Format                           : MPEG-4 Visual
Format profile                   : Advanced Simple@L5
Format settings, BVOP            : 2
Format settings, QPel            : No
Format settings, GMC             : No warppoints
Format settings, Matrix          : Default (H.263)
Muxing mode                      : Packed bitstream
Codec ID                         : XVID
Codec ID/Hint                    : XviD
Duration                         : 1h 34mn
Bit rate                         : 1 734 Kbps
Width                            : 720 pixels
Height                           : 402 pixels
Display aspect ratio             : 16:9
Frame rate                       : 29.970 fps
Color space                      : YUV
Chroma subsampling               : 4:2:0
Bit depth                        : 8 bits
Scan type                        : Progressive
Compression mode                 : Lossy
Bits/(Pixel*Frame)               : 0.200
Stream size                      : 1.14 GiB (84%)
Writing library                  : XviD 1.2.1 (UTC 2008-12-04)

Audio
ID                               : 1
Format                           : MPEG Audio
Format version                   : Version 1
Format profile                   : Layer 3
Mode                             : Joint stereo
Codec ID                         : 55
Codec ID/Hint                    : MP3
Duration                         : 1h 34mn
Bit rate mode                    : Constant
Bit rate                         : 320 Kbps
Channel(s)                       : 2 channels
Sampling rate                    : 48.0 KHz
Compression mode                 : Lossy
Stream size                      : 65.5 MiB (5%)
Alignment                        : Aligned on interleaves
Interleave, duration             : 79 ms (2.37 video frames)
Interleave, preload duration     : 24 ms
Writing library                  : LAME3.98.4

File Scan:
Malwarebytes' Anti-Malware 1.50.1.1100
www.malwarebytes.org

Database version: 6262
4/3/2011 5:31:28 PM
mbam-log-2011-04-03 (17-31-28).txt

Scan type: Quick scan
Objects scanned: 6
Time elapsed: 44 second(s)

Memory Processes Infected: 0
Memory Modules Infected: 0
Registry Keys Infected: 0
Registry Values Infected: 0
Registry Data Items Infected: 0
Folders Infected: 0
Files Infected: 0

Memory Processes Infected:
(No malicious items detected)

Memory Modules Infected:
(No malicious items detected)

Registry Keys Infected:
(No malicious items detected)

Registry Values Infected:
(No malicious items detected)

Registry Data Items Infected:
(No malicious items detected)

Folders Infected:
(No malicious items detected)

Files Infected:
(No malicious items detected)

When using TPB please read these important notes:
  
01- Anti-malware apps may warn about keygens, patches, cracks, etc., because of 
    their capabilities, (generating codes, etc.). Sometimes they're added to 
    the virus/spyware database and will be detected as malware. If you don't trust
    the keygens, patches, cracks, etc., don't use them. 
    
02- Before running .exe-files, keygens, patches, cracks, etc., always check first 
    if they can be unpacked. Often some third party added a virus to the 
    original file, repacked it and uploaded it again.

03- Letting anti-malware apps send scan results to their companies can cause
    keygens, patches, cracks, etc., to be added to their virus-database.

04- Firewalls which are set to automatically determine connections will allow 
    apps & malware!. Avoid this by manually configuring your firewall.

05- Usually (new) torrents with many downloads and seeders in a brief period is
    suspicious! Torrents with the Skull & Crossbones icon are trusted.

06- Some people use multiple accounts and post fake comments 
    and/or files trying to spread confusion. They seldom seriously
    comment or have any torrents, or a just a few to look passable.

07- Clicking on unknown links can cause malware to be installed on your machine.
  
08- In general often there are more fake and negative comments than reliable and
    positive comments.

09- In some countries uploading/downloading copyright protected material is 
    forbidden, but showing some appreciation to reliable up-loaders is not.

10- Posting fake and negative comments or fake/infected uploads on TPB can result
    in getting banned from TPB!

Requests?  Find me on SuprBay. http://forum.suprbay.org
 

For reporting bad or suspicious torrents:  
http://forum.suprbay.org/forumdisplay.php?fid=29

For more of my torrents: 
https://thepiratebay.org/user/big_dad_e/  (Secured)

All torrents scanned with:
Norton Anti-virus
Malwarebytes' Anti-malware
 
http://www.pirate-party.us/

ALWAYS SEED & THANKS SEEDERS!